<?xml version="1.0" encoding="UTF-8"?>
<!DOCTYPE svg PUBLIC "-//W3C//DTD SVG 1.1//EN" "http://www.w3.org/Graphics/SVG/1.1/DTD/svg11.dtd">
<!-- Creator: CorelDRAW -->
<svg xmlns="http://www.w3.org/2000/svg" xml:space="preserve" width="5.52464in" height="1.65092in" version="1.1" style="shape-rendering:geometricPrecision; text-rendering:geometricPrecision; image-rendering:optimizeQuality; fill-rule:evenodd; clip-rule:evenodd"
viewBox="0 0 5729.52 1712.15"
 xmlns:xlink="http://www.w3.org/1999/xlink"
 xmlns:xodm="http://www.corel.com/coreldraw/odm/2003">
 <defs>
  <style type="text/css">
   <![CDATA[
    .fil0 {fill:white}
    .fil1 {fill:#FBFBFA}
   ]]>
  </style>
 </defs>
 <g id="Layer_x0020_1">
  <metadata id="CorelCorpID_0Corel-Layer"/>
  <g id="_351591696">
   <path class="fil0" d="M1173.39 538.13c-16.6,-145.21 107.91,-296.17 271.97,-315.38 157.79,-18.48 310.68,128.75 317.89,273.77 8.3,167.01 -125.33,300.51 -273.07,314.2 -153.77,14.25 -298.62,-113.6 -316.79,-272.59zm244.13 -533.4c-121.32,20.48 -173.26,40.03 -270.57,113.89 -114.37,86.81 -217.62,272.23 -194.26,449.78 14.27,108.48 50.63,187.18 114.57,268.45 91.68,116.54 270.7,216.58 451.34,193.36 441.58,-56.74 638.34,-589.32 285.76,-899.42 -82.89,-72.9 -239.29,-150.98 -386.84,-126.07z"/>
   <path class="fil0" d="M3444.82 507.02c0,-20.33 2.17,-22.67 -15.08,-22.67l-481.36 0.73 -0.77 162.31c23.68,7.65 211,1.76 252.89,2.79 0.14,42.57 -62.87,114.62 -110.4,142.91 -176.01,104.76 -428.41,0.69 -454.26,-238.74 -16.93,-156.8 82.28,-283.92 187.75,-325.19 73.31,-28.68 145.09,-26.88 217.72,-0.42 61.7,22.47 106.1,70.86 133.05,125.45l241.47 0.33c-1.87,-39.34 -59.72,-127.34 -85.6,-159.25 -321.08,-395.74 -990.51,-144.66 -912.89,415.55 15,108.26 97.58,239.24 186.07,307.56 101.91,78.68 243.03,131.71 380.03,112.54 268.82,-37.63 461.38,-246.82 461.38,-523.9z"/>
   <path class="fil0" d="M5103.97 637.28c-0.41,-18.54 75.04,-217.27 90.88,-262.09 5.23,-14.8 23.11,-72.7 32.5,-86.89l7.8 9.9c1.43,3.29 2.03,7.34 3.26,11.11 20.29,61.99 115.14,308.81 113.07,328.56l-247.52 -0.59zm-375.49 382.19l235.18 1.11c15.22,-23.36 57.87,-171.55 74.64,-200.56l381.2 -0.53c12.53,23.44 27.2,72.4 37.48,100.1 10.44,28.09 25.34,80.99 37.56,100.75l234.98 0.13 -406.86 -1002.77 -185.18 -1.31c-6.43,7.75 -406.57,983.81 -409,1003.07z"/>
   <path class="fil0" d="M0.47 749.03l-0.47 266.51c64.23,30.05 255.36,21.19 340.68,-16.22 228.72,-100.29 187.8,-367.82 187.8,-592.56 0,-55.77 3.72,-364.26 -1.32,-391.82l-220.14 -0.62c-4.48,25.28 -1.26,549.41 -1.26,589.48 0,102.81 0.45,180.2 -89.81,208 -36.24,11.16 -94.93,12.25 -131.06,1.05 -26.8,-8.31 -47.44,-21.22 -65.99,-44.24 -8.76,-10.88 -6.01,-15.14 -18.44,-19.59z"/>
   <path class="fil0" d="M3821.01 748.71c-0.89,39.06 -6.22,247.79 2.83,267.41 30.27,15.75 133.48,17.43 176.32,16.34 161.96,-4.11 299.48,-80.85 334.61,-253.99 24.1,-118.77 14.69,-417.69 14.69,-568.76 0,-38.27 4.92,-167.06 -1.77,-194.9l-220.38 -0.47c-3.46,30.5 -0.79,540.49 -0.79,586.01 0.01,97.82 2.07,181.6 -86.19,209.82 -51.87,16.59 -135.58,17.44 -182.52,-22.46 -7.29,-6.2 -13.42,-12.25 -18.71,-19.35 -7.73,-10.37 -5.88,-15.02 -18.08,-19.66z"/>
   <path class="fil1" d="M2001.09 1530.27c-45.97,175.77 -292.92,92.61 -244.29,-68.84 49.81,-165.35 287.49,-96.38 244.29,68.84zm5.49 -156.82c-24.41,-13.72 -31.19,-39.85 -84.47,-57.24 -112.36,-36.69 -226.35,50.5 -227.46,179.49 -0.69,81.02 43.23,146.29 104.39,175.41 51.84,24.68 116.59,20.8 166.96,-14.7 7.17,-5.05 13.38,-11.32 18.28,-15.94 11.67,-10.99 8.74,-11.4 22.14,-18.85l0.41 43.79c1.28,17.82 0.28,7.52 4.27,11.71 8.79,6.52 45.05,4.12 53.94,-0.69l0.49 -599.02c0,-21.6 -4.99,-18.39 -25.41,-18.32 -18.43,0.06 -31.58,-5.66 -33.13,11.22 -3.99,43.44 2.44,232.54 -0.42,303.15z"/>
   <path class="fil0" d="M4962.44 1472.66c0.73,-28.95 24.59,-61.94 41.02,-76.36 83.33,-73.14 208.65,-0.84 207.47,76.36l-248.49 0zm292.85 102.46c-114.3,-3.27 -34.62,6.94 -116.32,43.09 -73.3,32.43 -169.67,-14.22 -179.1,-96 55.14,-3.95 179.57,-0.8 246.75,-0.8 65.97,0 70.79,8.55 70.79,-22.26 0,-217.11 -312.48,-270.23 -373.92,-47.06 -43.41,157.67 129.84,283.17 265.38,216.52 27.89,-13.71 83.62,-56.52 86.43,-93.49z"/>
   <path class="fil0" d="M4084.32 1523.35c-13.32,65.3 -73.71,117.08 -156.5,102.48 -57.22,-10.09 -119.56,-77 -100.04,-156.89 15.09,-61.76 75.94,-117.9 157.08,-99.77 61.02,13.63 115.33,76.38 99.46,154.18zm-168.8 -210.01c-28.12,7.51 -39.71,9.08 -66.26,28.21 -169.98,122.43 -56.04,383.46 149.16,340.01 88.6,-18.76 169.36,-115.1 142.11,-225.7 -21.18,-85.95 -111.64,-172.79 -225.01,-142.53z"/>
   <path class="fil0" d="M3531.44 1560.09c-84.8,-0.81 -49.51,-7.93 -82.43,27.42 -76.99,82.67 -223.35,23.9 -214.46,-98.89 4.51,-62.25 47.67,-105.2 100.45,-117.7 34.6,-8.19 68.04,2.47 89.22,15.9 26.96,17.1 36.59,34.19 51.65,58.94l59.56 0.01c-4.04,-62.05 -92.27,-146.73 -199.17,-136.66 -187.28,17.65 -234.94,316.67 -14.56,374.02 109.29,28.44 210.07,-76.14 209.73,-123.04z"/>
   <path class="fil0" d="M2724.52 1580.22l-54.96 -0.75c-6.33,36 25.68,75.41 49.94,90.78 60.22,38.14 174.56,27.03 212.57,-25.75 18.22,-25.29 30.26,-76.41 10.21,-111.07 -40.67,-70.35 -136.81,-50.37 -189.77,-93.04 -46.94,-37.82 12.13,-110.36 91.45,-74.59 21.31,9.61 21.29,16.85 32.67,39.46l59.17 0.98c-7.68,-117.06 -212.86,-136.08 -254.03,-22.33 -17.59,48.58 4.13,81.52 28.08,102.18 47.34,40.83 183.49,34.31 181.58,102.97 -1.27,45.64 -40.18,57.47 -87.58,55.38 -19.15,-0.85 -41.23,-7.48 -53.43,-19.12 -15.41,-14.72 -15.62,-26.8 -25.9,-45.11z"/>
   <path class="fil0" d="M4522.14 1712.15l164.98 -389.76 -60.42 -1.6 -88.29 225.71c-5.52,14.15 -8,25.42 -16.27,33.2 -9.54,-6.85 -9.94,-15.6 -15.82,-30.34 -26.19,-65.73 -63.81,-173.2 -89.42,-228.04l-59.01 -0.38c0.29,11.77 156.68,384.62 164.25,391.21z"/>
   <path class="fil1" d="M5595.98 1369.12c-3.76,-54.28 8.36,-52.23 -29.83,-51.99 -10.21,0.07 -18.48,-0.41 -28.53,1.2l-1.09 361.26c22.53,2.03 55.82,6.72 58.4,-8.05 10.13,-58.02 -29.11,-216.99 41.08,-278.84 38.75,-34.14 69.74,-6.9 85.65,-4.08l0.49 -69.51c-35.68,-19.07 -86.74,-6.72 -113.25,36.06 -0.56,0.91 -3.2,5.54 -3.84,6.3 -7.92,9.51 -1.54,2.28 -9.07,7.64z"/>
   <path class="fil1" d="M2357.19 1679.81l53.69 0.31c4.26,-14.03 4.77,-342.11 0.29,-361.86l-54.2 -1c-3.89,20.32 -3.51,348.93 0.22,362.55z"/>
   <path class="fil1" d="M2367.29 1186.16c-9.25,6 -30.52,18.32 -16.1,47.3 20.51,41.23 87.43,9.15 63.85,-33.73 -8.8,-15.99 -27.52,-26.68 -47.75,-13.56z"/>
  </g>
 </g>
</svg>
